<?xml version="1.0"?>
<svg xmlns="http://www.w3.org/2000/svg" viewBox="0 0 64 64" width="512" height="512"><g id="Outline"><g><path d="M53,8H34A11.01,11.01,0,0,0,23.051,18H17.126L10.286,6.918A1.913,1.913,0,1,1,13.6,5.007l5.64,10.468A1,1,0,0,0,21,14.525L15.358,4.059a3.913,3.913,0,1,0-6.775,3.91L14.775,18H11a3,3,0,0,0,0,6H47.918L46.276,44.788A31.1,31.1,0,0,1,40.5,46.265a1,1,0,0,0-.714.508,10,10,0,0,1-17.578,0,1,1,0,0,0-.715-.507,31.12,31.12,0,0,1-5.773-1.477L15.3,39.366a30.037,30.037,0,0,1,6.2-1.631,1,1,0,0,0,.715-.507,10,10,0,0,1,17.578,0,1,1,0,0,0,.714.508c1.136.189,2.228.417,3.247.681a1,1,0,1,0,.5-1.937c-.934-.241-1.924-.455-2.949-.636a12,12,0,0,0-20.6,0,32.69,32.69,0,0,0-5.567,1.448l-.819-10.37a1,1,0,0,0-1.994.158l2.247,28.473A7.037,7.037,0,0,0,21.545,62h18.91a7.036,7.036,0,0,0,6.979-6.448l.2-2.5a1,1,0,1,0-1.994-.158l-.2,2.5A5.023,5.023,0,0,1,40.455,60H21.545a5.024,5.024,0,0,1-4.984-4.606L15.9,46.98a34.372,34.372,0,0,0,4.8,1.177,12,12,0,0,0,20.6,0,34.356,34.356,0,0,0,4.8-1.177l-.152,1.926a1,1,0,0,0,.918,1.076l.08,0a1,1,0,0,0,1-.921L49.924,24H51a3,3,0,0,0,0-6H48.062a10.176,10.176,0,0,1,4.485-7.5l.716-.477A4.993,4.993,0,0,1,58,15a12.989,12.989,0,0,1-5.572,10.642,1,1,0,1,0,1.144,1.64A14.988,14.988,0,0,0,60,15,7.009,7.009,0,0,0,53,8ZM52,21a1,1,0,0,1-1,1H11a1,1,0,0,1,0-2H51A1,1,0,0,1,52,21Zm-5.959-3H25.055A9.013,9.013,0,0,1,34,10H49.956A12.173,12.173,0,0,0,46.041,18Z"/><path d="M34.832,36.555A1,1,0,0,0,33.8,35.02l-2.609.521a4.87,4.87,0,0,0-3.734,3.514,3.99,3.99,0,1,0,3.048,7.05A3.964,3.964,0,0,0,33,47a3.992,3.992,0,0,0,.607-7.939,2.865,2.865,0,0,1,.465-1.367Zm-3.245.947.373-.074a4.863,4.863,0,0,0-.35,1.835,3.984,3.984,0,0,0-1.1.632,4.011,4.011,0,0,0-1.025-.608A2.865,2.865,0,0,1,31.587,37.5ZM26,43a2,2,0,0,1,1.047-1.748.988.988,0,0,0,.71.718A1.025,1.025,0,0,0,28,42a1,1,0,0,0,.965-.747,1.984,1.984,0,0,1,.334.237,3.95,3.95,0,0,0,0,3.02A1.992,1.992,0,0,1,26,43Zm9,0a2,2,0,1,1-2.964-1.741c.027.061.039.128.069.188a1,1,0,0,0,1.342.448.989.989,0,0,0,.51-.64A2,2,0,0,1,35,43Z"/></g></g></svg>
